# xmcd
# 
# Track frame offsets:
#     150
#     13769
#     26735
#     44764
#     58257
#     72242
#     87600
#     105344
#     122627
#     138180
#     155295
#     167286
# 
# Disc length: 2501
# 
# Revision: 1
# Processed by: cddbd v1.5.2PL0 Copyright (c) Steve Scherf et al.
# Submitted via: fre:ac v1.0.31
# 
DISCID=9d09c30c
DTITLE=GIRLS GUNS and GLORY - Love and protest
DYEAR=2017
DGENRE=Country
TTITLE0=Rock'n' Roll
TTITLE1=Wine Went Bad ( But I'm Still Drinkin' )
TTITLE2=Who Will Love You
TTITLE3=Reno,  NV
TTITLE4=Well Laid Plans
TTITLE5=Diamonddillium
TTITLE6=Memories Don't Die
TTITLE7=Hot Burrito # 1
TTITLE8=Stare at theDarkness
TTITLE9=Empty Bottles
TTITLE10=ManWasn't Made
TTITLE11=Unglued
EXTD=
EXTT0=
EXTT1=
EXTT2=
EXTT3=
EXTT4=
EXTT5=
EXTT6=
EXTT7=
EXTT8=
EXTT9=
EXTT10=
EXTT11=
PLAYORDER=
